<?xml version="1.0" encoding="utf-8"?>
<!-- Generator: Adobe Illustrator 24.1.3, SVG Export Plug-In . SVG Version: 6.00 Build 0)  -->
<svg version="1.1" id="Layer_1" xmlns="http://www.w3.org/2000/svg" xmlns:xlink="http://www.w3.org/1999/xlink" x="0px" y="0px"
	 viewBox="0 0 15 15" style="enable-background:new 0 0 15 15;" xml:space="preserve">
<style type="text/css">
	.st0{fill:#FFFFFF;}
</style>
<g>
	<path class="st0" d="M10.58,5.24c-1.23,0-2.06,0.68-2.4,1.32H8.14V5.45H5.71v8.17h2.53V9.57c0-1.06,0.2-2.09,1.52-2.09
		c1.3,0,1.32,1.22,1.32,2.16v3.98l2.53,0v0h0V9.13C13.62,6.93,13.14,5.24,10.58,5.24z"/>
	<rect x="1.58" y="5.45" class="st0" width="2.54" height="8.17"/>
	<path class="st0" d="M2.85,1.38c-0.81,0-1.47,0.66-1.47,1.47s0.66,1.48,1.47,1.48s1.47-0.67,1.47-1.48
		C4.32,2.04,3.66,1.38,2.85,1.38z"/>
</g>
</svg>
