<?xml version="1.0" encoding="utf-8"?>
<!-- Generator: Adobe Illustrator 24.1.3, SVG Export Plug-In . SVG Version: 6.00 Build 0)  -->
<svg version="1.1" id="Layer_1" xmlns="http://www.w3.org/2000/svg" xmlns:xlink="http://www.w3.org/1999/xlink" x="0px" y="0px"
	 viewBox="0 0 12 14.3" style="enable-background:new 0 0 12 14.3;" xml:space="preserve">
<style type="text/css">
	.st0{fill:#FFFFFF;}
</style>
<path class="st0" d="M10.77,11.77L8.53,9c-0.07-0.09-0.2-0.12-0.3-0.06L6.84,9.66C6.48,9.3,5.98,8.65,5.4,7.53
	C4.8,6.41,4.56,5.62,4.46,5.12l1.36-0.78c0.1-0.06,0.14-0.17,0.11-0.28L4.93,0.64C4.9,0.55,4.82,0.48,4.72,0.47
	C4.55,0.45,4.39,0.44,4.23,0.44c-1.18,0-1.89,0.49-2.28,0.9c-0.43,0.45-0.57,0.9-0.58,0.92c0,0,0,0,0,0
	C1.36,2.3,1.15,3.04,1.18,4.25C1.21,5.37,1.46,7.1,2.49,9.06c1.03,1.96,2.31,3.13,3.2,3.77c0.97,0.7,1.7,0.93,1.73,0.94
	c0.01,0,0.27,0.08,0.65,0.08c0.65,0,1.87-0.24,2.73-1.82C10.84,11.95,10.83,11.84,10.77,11.77z M8.06,13.37
	c-0.3,0-0.5-0.06-0.5-0.06c-0.01,0-0.7-0.22-1.61-0.88C5.11,11.82,3.9,10.7,2.92,8.84C1.94,6.97,1.7,5.32,1.66,4.26
	C1.63,3.15,1.82,2.45,1.83,2.4c0.02-0.06,0.51-1.48,2.4-1.48c0.09,0,0.18,0,0.28,0.01l0.91,3.08L4.07,4.79
	C3.98,4.84,3.93,4.93,3.95,5.03C4.07,5.79,4.41,6.7,4.97,7.76c0.55,1.05,1.11,1.85,1.66,2.38c0.08,0.07,0.19,0.09,0.28,0.04
	l1.37-0.72l2.01,2.49C9.59,13.12,8.7,13.37,8.06,13.37z"/>
</svg>
