<?xml version="1.0" encoding="utf-8"?>
<!-- Generator: Adobe Illustrator 24.1.3, SVG Export Plug-In . SVG Version: 6.00 Build 0)  -->
<svg version="1.1" id="Layer_1" xmlns="http://www.w3.org/2000/svg" xmlns:xlink="http://www.w3.org/1999/xlink" x="0px" y="0px"
	 viewBox="0 0 15 15" style="enable-background:new 0 0 15 15;" xml:space="preserve">
<style type="text/css">
	.st0{fill:#FFFFFF;}
</style>
<g>
	<path class="st0" d="M11.38,5.32c-3.27,0-3.28,3.26-3.28,3.28c0,0-0.22,3.26,3.28,3.26c0,0,2.92,0.17,2.92-2.27h-1.5
		c0,0,0.05,0.92-1.37,0.92c0,0-1.5,0.1-1.5-1.48h4.42C14.35,9.02,14.84,5.32,11.38,5.32z M9.92,7.88c0,0,0.18-1.31,1.5-1.31
		c1.32,0,1.3,1.31,1.3,1.31H9.92z M6.17,7.04c0,0,1.3-0.1,1.3-1.62c0-1.52-1.06-2.27-2.41-2.27H0.62v8.53h4.44
		c0,0,2.71,0.08,2.71-2.52C7.77,9.16,7.89,7.04,6.17,7.04z M2.58,4.66h2.48c0,0,0.6,0,0.6,0.89S5.31,6.56,4.91,6.56H2.58V4.66z
		 M4.94,10.16H2.58V7.88h2.48c0,0,0.9-0.01,0.9,1.17C5.96,10.05,5.29,10.15,4.94,10.16z M9.55,3.65V4.7h3.52V3.65H9.55z"/>
</g>
</svg>
