<?xml version="1.0" encoding="utf-8"?>
<!-- Generator: Adobe Illustrator 24.1.3, SVG Export Plug-In . SVG Version: 6.00 Build 0)  -->
<svg version="1.1" id="Layer_1" xmlns="http://www.w3.org/2000/svg" xmlns:xlink="http://www.w3.org/1999/xlink" x="0px" y="0px"
	 viewBox="0 0 14 14" style="enable-background:new 0 0 14 14;" xml:space="preserve">
<style type="text/css">
	.st0{fill:#FFFFFF;}
</style>
<g>
	<path class="st0" d="M11.93,1.51h-1.39V0.92c0-0.13-0.11-0.24-0.24-0.24c-0.13,0-0.24,0.11-0.24,0.24v0.59H3.89V0.92
		c0-0.13-0.11-0.24-0.24-0.24c-0.13,0-0.24,0.11-0.24,0.24v0.59H2.07c-0.8,0-1.46,0.65-1.46,1.46v8.9c0,0.8,0.65,1.46,1.46,1.46
		h9.87c0.8,0,1.46-0.65,1.46-1.46v-8.9C13.39,2.17,12.74,1.51,11.93,1.51z M12.91,11.87c0,0.54-0.44,0.97-0.97,0.97H2.07
		c-0.54,0-0.97-0.44-0.97-0.97V4.42h11.81V11.87z M12.91,3.94H1.09V2.97C1.09,2.43,1.53,2,2.07,2h1.34v0.88
		c0,0.13,0.11,0.24,0.24,0.24c0.13,0,0.24-0.11,0.24-0.24V2h6.17v0.88c0,0.13,0.11,0.24,0.24,0.24c0.13,0,0.24-0.11,0.24-0.24V2
		h1.39c0.54,0,0.97,0.44,0.97,0.97V3.94z"/>
	<path class="st0" d="M9.49,11.53h1.94c0.13,0,0.24-0.11,0.24-0.24V9.34c0-0.13-0.11-0.24-0.24-0.24H9.49
		c-0.13,0-0.24,0.11-0.24,0.24v1.94C9.25,11.42,9.36,11.53,9.49,11.53z M9.74,9.59h1.46v1.46H9.74V9.59z"/>
	<path class="st0" d="M9.49,8.05h1.94c0.13,0,0.24-0.11,0.24-0.24V5.87c0-0.13-0.11-0.24-0.24-0.24H9.49
		c-0.13,0-0.24,0.11-0.24,0.24v1.94C9.25,7.94,9.36,8.05,9.49,8.05z M9.74,6.11h1.46v1.46H9.74V6.11z"/>
	<path class="st0" d="M6.02,11.53h1.94c0.13,0,0.24-0.11,0.24-0.24V9.34c0-0.13-0.11-0.24-0.24-0.24H6.02
		c-0.13,0-0.24,0.11-0.24,0.24v1.94C5.77,11.42,5.88,11.53,6.02,11.53z M6.26,9.59h1.46v1.46H6.26V9.59z"/>
	<path class="st0" d="M2.54,8.05h1.94c0.13,0,0.24-0.11,0.24-0.24V5.87c0-0.13-0.11-0.24-0.24-0.24H2.54
		c-0.13,0-0.24,0.11-0.24,0.24v1.94C2.29,7.94,2.4,8.05,2.54,8.05z M2.78,6.11h1.46v1.46H2.78V6.11z"/>
	<path class="st0" d="M6.02,8.05h1.94c0.13,0,0.24-0.11,0.24-0.24V5.87c0-0.13-0.11-0.24-0.24-0.24H6.02
		c-0.13,0-0.24,0.11-0.24,0.24v1.94C5.77,7.94,5.88,8.05,6.02,8.05z M6.26,6.11h1.46v1.46H6.26V6.11z"/>
	<path class="st0" d="M2.54,11.53h1.94c0.13,0,0.24-0.11,0.24-0.24V9.34c0-0.13-0.11-0.24-0.24-0.24H2.54
		c-0.13,0-0.24,0.11-0.24,0.24v1.94C2.29,11.42,2.4,11.53,2.54,11.53z"/>
</g>
</svg>
