<?xml version="1.0" encoding="utf-8"?>
<!-- Generator: Adobe Illustrator 24.1.3, SVG Export Plug-In . SVG Version: 6.00 Build 0)  -->
<svg version="1.1" id="Layer_1" xmlns="http://www.w3.org/2000/svg" xmlns:xlink="http://www.w3.org/1999/xlink" x="0px" y="0px"
	 viewBox="0 0 15 15" style="enable-background:new 0 0 15 15;" xml:space="preserve">
<style type="text/css">
	.st0{fill:#FFFFFF;}
</style>
<path class="st0" d="M7.51,0.48c-3.89,0-7.02,3.17-7.02,7.02c0,4.87,4.93,8.35,9.57,6.53c0.01,0,0.02-0.01,0.03-0.01
	C17.23,11.18,15.26,0.48,7.51,0.48z M11.53,2.87c-0.5,0.47-1.66,1.43-3.66,2.21C6.89,3.52,5.84,2.43,5.18,1.82
	C7.3,0.95,9.75,1.32,11.53,2.87z M4.34,2.25c0.5,0.44,1.6,1.5,2.66,3.13C5.54,5.85,3.72,6.2,1.5,6.24C1.85,4.55,2.9,3.12,4.34,2.25z
	 M1.38,7.12c2.49-0.04,4.5-0.43,6.09-0.96C7.69,6.55,7.9,6.97,8.1,7.4c-2.77,0.88-4.5,3.16-5.16,4.19C1.87,10.4,1.28,8.84,1.38,7.12
	z M3.58,12.21c0.5-0.84,2.11-3.2,4.86-4.02c0.58,1.47,0.98,3.18,1.02,5.12C7.37,14.02,5.17,13.55,3.58,12.21z M10.32,12.95
	c-0.08-1.87-0.46-3.52-1-4.95c1.22-0.19,2.63-0.06,4.23,0.58C13.21,10.48,11.99,12.09,10.32,12.95z M8.98,7.18
	C8.78,6.71,8.56,6.26,8.33,5.85c2.06-0.82,3.28-1.83,3.82-2.36c0.96,1.11,1.53,2.56,1.49,4.18C11.88,7.01,10.33,6.93,8.98,7.18z"/>
</svg>
