<?xml version="1.0" encoding="utf-8"?>
<!-- Generator: Adobe Illustrator 24.1.3, SVG Export Plug-In . SVG Version: 6.00 Build 0)  -->
<svg version="1.1" id="Layer_1" xmlns="http://www.w3.org/2000/svg" xmlns:xlink="http://www.w3.org/1999/xlink" x="0px" y="0px"
	 viewBox="0 0 13.5 13.5" style="enable-background:new 0 0 13.5 13.5;" xml:space="preserve">
<style type="text/css">
	.st0{fill:#FFFFFF;}
</style>
<path class="st0" d="M12.75,5.62C12.75,5.62,12.74,5.62,12.75,5.62L11.49,4.5c-0.02-0.01-0.03-0.02-0.05-0.03V2.24
	C11.44,2.1,11.34,2,11.2,2H8.7L6.91,0.4C6.83,0.32,6.69,0.32,6.6,0.39c0,0-0.01,0.01-0.01,0.01L4.85,1.96
	C4.84,1.97,4.82,1.98,4.81,2H2.3C2.17,2,2.06,2.1,2.06,2.24v2.23L0.77,5.61C0.72,5.66,0.69,5.72,0.69,5.78c0,0,0,0.01,0,0.01v7.12
	c0,0.13,0.11,0.24,0.24,0.24h11.65c0.13,0,0.24-0.11,0.24-0.24V5.8C12.82,5.73,12.79,5.67,12.75,5.62z M12.17,5.76l-0.73,0.45v-1.1
	L12.17,5.76z M6.75,0.9L7.97,2H5.53L6.75,0.9z M10.96,2.48v4.03L6.75,9.1L2.55,6.51V2.48H10.96z M2.06,6.21L1.33,5.76l0.73-0.64
	V6.21z M1.17,12.67V6.23l5.45,3.36c0.04,0.02,0.08,0.04,0.13,0.04l0,0l0,0c0.04,0,0.09-0.01,0.13-0.04l5.45-3.36v6.44H1.17z"/>
</svg>
