<?xml version="1.0" encoding="utf-8"?>
<!-- Generator: Adobe Illustrator 24.1.3, SVG Export Plug-In . SVG Version: 6.00 Build 0)  -->
<svg version="1.1" id="Layer_1" xmlns="http://www.w3.org/2000/svg" xmlns:xlink="http://www.w3.org/1999/xlink" x="0px" y="0px"
	 viewBox="0 0 12 14.74" style="enable-background:new 0 0 12 14.74;" xml:space="preserve">
<style type="text/css">
	.st0{fill:#FFFFFF;}
</style>
<path class="st0" d="M8.06,5.06V2.69c0.82-0.2,1.42-0.94,1.42-1.81c0-0.13-0.11-0.24-0.24-0.24H2.76c-0.13,0-0.24,0.11-0.24,0.24
	c0,0.86,0.6,1.61,1.42,1.81v2.37C3.12,5.26,2.52,6,2.52,6.87v0.81c0,0.13,0.11,0.24,0.24,0.24h2.21c0.05,1.38,0.18,2.86,0.35,4.1
	c0.08,0.56,0.16,1.04,0.24,1.39c0.1,0.42,0.18,0.7,0.43,0.7c0.25,0,0.33-0.28,0.43-0.7c0.08-0.34,0.16-0.83,0.24-1.39
	c0.17-1.24,0.3-2.72,0.35-4.1h2.21c0.13,0,0.24-0.11,0.24-0.24V6.87C9.48,6,8.88,5.26,8.06,5.06z M6,13.1
	c-0.19-0.95-0.45-2.92-0.54-5.18h1.08C6.45,10.18,6.19,12.15,6,13.1z M8.99,7.43H3.01V6.87c0-0.69,0.52-1.28,1.2-1.36
	c0.12-0.02,0.21-0.12,0.21-0.24V2.49c0-0.12-0.09-0.23-0.21-0.24c-0.6-0.08-1.08-0.54-1.18-1.12h5.94c-0.1,0.58-0.58,1.05-1.18,1.12
	C7.67,2.26,7.58,2.36,7.58,2.49v2.78c0,0.12,0.09,0.23,0.21,0.24c0.69,0.09,1.2,0.67,1.2,1.36V7.43z"/>
</svg>
