<?xml version="1.0" encoding="utf-8"?>
<!-- Generator: Adobe Illustrator 24.1.3, SVG Export Plug-In . SVG Version: 6.00 Build 0)  -->
<svg version="1.1" id="Layer_1" xmlns="http://www.w3.org/2000/svg" xmlns:xlink="http://www.w3.org/1999/xlink" x="0px" y="0px"
	 viewBox="0 0 250 250" style="enable-background:new 0 0 250 250;" xml:space="preserve">
<style type="text/css">
	.st0{enable-background:new    ;}
	.st1{fill:#575757;}
</style>
<g class="st0">
	<path class="st1" d="M238,152.29c-1.04-0.35-2.1-0.52-3.22-0.52c-11.06,0.02-22.13,0.01-33.19,0.01c-0.41,0-0.83-0.02-1.23-0.03
		c-0.15-0.36,0.01-0.63,0.12-0.87c0.45-1.06,0.54-2.16,0.54-3.3c-0.02-11.06-0.02-22.13,0-33.19c0-0.89-0.1-1.72-0.51-2.51
		c-0.1-0.2-0.16-0.41-0.26-0.69c0.18-0.05,0.32-0.11,0.46-0.11c0.29-0.02,0.58-0.01,0.87-0.01c11,0,22-0.01,33,0.01
		c1.17,0,2.3-0.13,3.42-0.47c0,3.28,0,6.56,0,9.84c-0.17-0.08-0.36-0.15-0.52-0.24c-0.87-0.48-1.79-0.59-2.78-0.59
		c-7.36,0.02-14.73,0.01-22.09,0.01c-0.29,0-0.58-0.01-0.87,0.01c-0.18,0.01-0.36,0.08-0.58,0.13c0,2.48,0,4.92,0,7.37
		c0,0.12,0.05,0.24,0.08,0.39c0.4,0.13,0.78,0.09,1.16,0.09c5.88,0,11.77,0,17.65,0.01c0.81,0,1.6-0.05,2.38-0.3
		c0.24-0.08,0.49-0.17,0.74-0.01c0.12,0.73,0.19,6.7,0.09,8.76c-0.01,0.18-0.06,0.36-0.09,0.58c-0.33,0.04-0.61,0-0.89-0.09
		c-0.74-0.24-1.51-0.28-2.28-0.27c-4.86,0.01-9.71,0-14.57,0.01c-1.16,0-2.32,0-3.47,0c-0.25,0-0.52-0.05-0.79,0.23
		c-0.03,1.05-0.02,2.17-0.01,3.29c0.01,1.11-0.08,2.23,0.06,3.37c0.42,0.12,0.81,0.08,1.19,0.08c7.27,0,14.53,0,21.8,0
		c2,0,2,0,3.79-0.8C238,145.73,238,149.01,238,152.29z"/>
	<path class="st1" d="M129.04,141.13c0.13,0.15,0.24,0.3,0.38,0.42c2.88,2.57,5.75,5.15,8.64,7.71c0.31,0.27,0.67,0.49,1.03,0.7
		c0.92,0.53,1.84,1.04,2.74,1.55c0.01,0.23-0.13,0.25-0.25,0.25c-0.26,0.01-0.51,0.01-0.77,0.01c-4.99,0-9.97,0-14.96,0
		c-0.38,0-0.77,0.05-1.17-0.1c-0.25-0.71,0-1.46-0.19-2.28c-0.19-0.18-0.45-0.41-0.71-0.65c-1.91-1.77-3.83-3.54-5.71-5.33
		c-0.43-0.41-0.86-0.59-1.45-0.58c-1.8,0.03-3.6,0.01-5.4,0.01c-0.28,0-0.57,0.03-0.82,0.04c-0.29,0.31-0.19,0.65-0.19,0.96
		c-0.01,2.28,0,4.57-0.01,6.85c0,0.32-0.03,0.63-0.04,1c-0.29,0.04-0.54,0.1-0.78,0.1c-3.12,0.01-6.24,0.01-9.36,0
		c-0.22,0-0.43-0.06-0.68-0.09c0.06-0.56,0.28-1.03,0.45-1.51c0.19-0.52,0.28-1.04,0.28-1.6c-0.01-11.55-0.01-23.09,0-34.64
		c0-0.56-0.09-1.08-0.32-1.59c-0.16-0.35-0.29-0.71-0.45-1.13c0.16-0.06,0.29-0.13,0.43-0.15c0.19-0.03,0.39-0.01,0.58-0.01
		c7.56,0,15.12-0.01,22.67,0c2.92,0.01,5.76,0.5,8.45,1.68c2.89,1.26,5.34,3.07,7.22,5.62c1.4,1.9,2.32,4.01,2.61,6.36
		c0.36,2.93-0.17,5.7-1.64,8.27c-1.57,2.76-3.82,4.83-6.61,6.31c-0.99,0.53-2.05,0.91-3.08,1.36
		C129.64,140.8,129.3,140.82,129.04,141.13z M110.29,133.2c0.44,0,0.79,0,1.14,0c3.76,0,7.53,0,11.29,0c0.35,0,0.71,0.01,1.06-0.01
		c1.57-0.1,3.04-0.52,4.36-1.38c0.93-0.6,1.71-1.36,2.26-2.33c0.69-1.21,0.98-2.5,0.76-3.89c-0.25-1.57-1-2.84-2.18-3.87
		c-1.51-1.32-3.28-1.99-5.28-2.07c-0.71-0.03-1.41-0.01-2.12-0.01c-3.44,0-6.88,0-10.32,0.01c-0.34,0-0.71-0.11-1.06,0.19
		c0,4.28,0,8.58,0,12.89C110.2,132.85,110.24,132.97,110.29,133.2z"/>
	<path class="st1" d="M54.35,111.07c0.53-0.01,0.91-0.01,1.29-0.01c11.06,0,22.13,0,33.19,0.01c0.94,0,1.86-0.05,2.77-0.31
		c0.18-0.05,0.37-0.06,0.55-0.09c0.12,0.83,0.12,8.84,0,9.69c-0.42-0.04-0.79-0.25-1.16-0.42c-0.48-0.22-0.96-0.32-1.49-0.32
		c-7.75,0.01-15.5,0.01-23.25,0.01c-0.28,0-0.57,0.03-0.89,0.04c-0.04,0.22-0.1,0.41-0.1,0.59c-0.01,2.22-0.01,4.44,0,6.66
		c0,0.19,0.04,0.37,0.07,0.61c0.29,0.03,0.53,0.07,0.78,0.07c1.48,0.01,2.96,0,4.44,0c4.57,0,9.13-0.01,13.7,0.01
		c0.75,0,1.47-0.05,2.19-0.26c0.27-0.08,0.55-0.2,0.89-0.05c0.02,0.19,0.06,0.41,0.07,0.63c0.09,4.34,0.04,7.87-0.1,8.67
		c-0.32,0.14-0.63,0.02-0.93-0.07c-0.68-0.2-1.38-0.26-2.09-0.26c-5.92,0.01-11.84,0-17.75,0.01c-0.38,0-0.77-0.05-1.19,0.11
		c-0.13,0.74-0.05,1.47-0.06,2.2c-0.01,0.77-0.01,1.54,0,2.32c0.01,0.73-0.04,1.47,0.04,2.25c0.22,0.03,0.4,0.08,0.58,0.09
		c0.26,0.01,0.51,0.01,0.77,0.01c7.49,0,14.99-0.01,22.48,0.01c0.76,0,1.46-0.11,2.14-0.44c0.25-0.13,0.53-0.21,0.76-0.3
		c0.24,0.1,0.2,0.28,0.2,0.43c0,2.93,0,5.85,0,8.78c0,0.15-0.04,0.3-0.06,0.5c-0.36-0.07-0.68-0.1-0.98-0.2
		c-0.69-0.21-1.38-0.26-2.1-0.25c-11.13,0-22.26,0-33.39,0c-0.41,0-0.83,0.04-1.23-0.06c-0.13-0.34,0.01-0.6,0.12-0.86
		c0.46-1.06,0.53-2.16,0.53-3.3c-0.02-11.03-0.02-22.06,0-33.1c0-0.92-0.1-1.79-0.52-2.61C54.53,111.66,54.48,111.44,54.35,111.07z"
		/>
	<path class="st1" d="M40.59,111.88c0.11,0.75,0.13,8.41,0.03,9.46c-0.15,0.14-0.29,0.05-0.43-0.02c-1.52-0.78-3.07-1.46-4.72-1.92
		c-1.79-0.5-3.61-0.62-5.45-0.49c-1.16,0.09-2.27,0.46-3.28,1.06c-1.62,0.97-1.83,3.13-0.45,4.43c0.45,0.42,0.99,0.7,1.56,0.94
		c1.11,0.45,2.27,0.71,3.44,0.92c2.95,0.52,5.81,1.36,8.57,2.56c1.54,0.67,3,1.47,4.35,2.48c1.41,1.05,2.61,2.28,3.53,3.79
		c1.03,1.69,1.57,3.51,1.49,5.5c-0.07,1.64-0.57,3.16-1.37,4.57c-1.46,2.56-3.57,4.44-6.19,5.77c-2,1.01-4.13,1.59-6.36,1.79
		c-4.91,0.43-9.69-0.11-14.33-1.78c-2.86-1.03-5.51-2.47-7.92-4.33c-0.1-0.08-0.2-0.16-0.3-0.24c-0.05-0.04-0.08-0.1-0.16-0.19
		c0.11-0.13,0.22-0.28,0.36-0.4c2.2-1.88,4.41-3.75,6.61-5.62c0.07-0.06,0.16-0.1,0.28-0.18c0.2,0.13,0.41,0.26,0.61,0.42
		c2.59,1.98,5.51,3.14,8.72,3.61c1.4,0.2,2.82,0.31,4.23,0.2c0.7-0.06,1.41-0.16,2.08-0.37c1.32-0.42,2.26-1.3,2.84-2.57
		c0.42-0.92,0.28-1.75-0.31-2.53c-0.41-0.55-0.94-0.97-1.51-1.34c-0.98-0.63-2.04-1.09-3.13-1.49c-1.45-0.52-2.94-0.91-4.47-1.17
		c-2.25-0.39-4.46-0.97-6.54-1.93c-1.62-0.74-3.12-1.67-4.4-2.92c-2.13-2.08-3.21-4.62-3.26-7.59c-0.04-2.13,0.6-4.05,1.83-5.78
		c0.91-1.28,2.05-2.3,3.35-3.15c2.08-1.35,4.36-2.18,6.76-2.7c2.22-0.48,4.46-0.48,6.71-0.27c1.79,0.17,3.58,0.4,5.32,0.86
		C39.36,111.38,40.03,111.51,40.59,111.88z"/>
	<path class="st1" d="M168.16,153.16c-0.24-0.35-0.44-0.64-0.63-0.93c-3.85-5.97-7.71-11.94-11.56-17.9
		c-4.18-6.48-8.37-12.96-12.55-19.45c-0.35-0.55-0.75-1.03-1.25-1.45c-0.69-0.58-1.36-1.19-2.03-1.78
		c-0.14-0.12-0.27-0.26-0.39-0.39c0.17-0.3,0.43-0.2,0.63-0.2c3.09-0.01,6.17-0.01,9.26-0.01c2.32,0,4.63,0,6.95,0
		c0.31,0,0.63,0.02,0.9,0.03c0.06,0.08,0.09,0.11,0.1,0.13c0.01,0.03,0,0.07-0.02,0.09c-0.6,0.91-1.2,1.82-1.77,2.69
		c-0.01,0.09-0.02,0.12-0.01,0.15c0,0.03,0.01,0.07,0.03,0.09c3.98,6.49,7.96,12.99,11.95,19.48c0.08,0.14,0.17,0.27,0.26,0.41
		c0.04,0.05,0.09,0.09,0.14,0.13c0.02,0.02,0.06,0.03,0.09,0.05c0.07-0.06,0.16-0.11,0.21-0.19c4.06-6.64,8.11-13.27,12.2-19.96
		c-0.55-1.01-1.31-1.89-1.93-2.94c0.2-0.07,0.33-0.13,0.47-0.15c0.22-0.02,0.45-0.01,0.67-0.01c5.24,0,10.48,0,15.72,0
		c0.31,0,0.63,0.02,0.92,0.03c0.12,0.26-0.05,0.34-0.16,0.44c-0.74,0.66-1.48,1.33-2.24,1.98c-0.45,0.38-0.8,0.82-1.12,1.31
		c-7.48,11.59-14.96,23.17-22.44,34.76c-0.66,1.03-1.33,2.05-1.99,3.08C168.45,152.81,168.33,152.94,168.16,153.16z"/>
	<path class="st1" d="M173.03,97.7c-0.04,0.21-0.05,0.33-0.09,0.44c-1.2,3.08-2.41,6.15-3.62,9.25c-0.31,0.06-0.59,0.12-0.87,0.17
		c-0.28,0.05-0.56,0.09-0.89,0.15c-0.04-0.17-0.09-0.28-0.08-0.4c0.24-2.36,0.48-4.73,0.72-7.09c0.02-0.22,0.09-0.43,0.15-0.7
		c0.77-0.31,1.53-0.63,2.31-0.93C171.42,98.29,172.15,97.9,173.03,97.7z"/>
</g>
</svg>
